# xmcd CD database file
#
# Track frame offsets:
#	150
#	7784
#	19713
#	26285
#	34649
#	44197
#	53515
#	73068
#	78379
#
# Disc length: 1248 seconds
#
# Revision: 0
# Processed by: cddbd v1.5.2PL0 Copyright (c) Steve Scherf et al.
# Submitted via: CDex 1.70beta2
#
DISCID=6204de09
DTITLE=Brane Frlic - Poljanski blues
DYEAR=2005
DGENRE=Blues
TTITLE0=Mama, dej mi mir
TTITLE1=Kronika
TTITLE2=V petih minutah
TTITLE3=Kva j u men
TTITLE4=Richepinov motiv
TTITLE5=Od zvizd
TTITLE6=Dekle vojak na prwob
TTITLE7=Svedra
TTITLE8=Piism, ke ja j piiv adn, ke j pol hmal umaru
EXTD=YEAR: 2005
EXTT0=
EXTT1=
EXTT2=
EXTT3=
EXTT4=
EXTT5=
EXTT6=
EXTT7=
EXTT8=
PLAYORDER=
